{
    "asset" : {
        "copyright" : "CC0 Public Domain",
        "generator" : "Khronos glTF Blender I/O v1.6.16",
        "version" : "2.0"
    },
    "scene" : 0,
    "scenes" : [
        {
            "name" : "Scene",
            "nodes" : [
                3
            ]
        }
    ],
    "nodes" : [
        {
            "mesh" : 0,
            "name" : "Circle.014_Circle.005",
            "translation" : [
                1.3335305452346802,
                2.9433955205604434e-05,
                3.584620952606201
            ]
        },
        {
            "children" : [
                0
            ],
            "mesh" : 1,
            "name" : "Circle.014_Circle.001",
            "translation" : [
                1.615400791168213,
                0,
                -5.115056037902832
            ]
        },
        {
            "mesh" : 2,
            "name" : "Circle.014_Circle.003",
            "translation" : [
                -2.8263845443725586,
                2.7969588700216264e-05,
                -1.5304349660873413
            ]
        },
        {
            "children" : [
                1,
                2
            ],
            "mesh" : 3,
            "name" : "Circle.014_Circle.007",
            "rotation" : [
                0,
                -0.7071067094802856,
                0.7071068286895752,
                5.338507236274381e-08
            ]
        }
    ],
    "materials" : [
        {
            "doubleSided" : true,
            "name" : "Material",
            "pbrMetallicRoughness" : {
                "baseColorFactor" : [
                    0,
                    0,
                    0,
                    1
                ],
                "metallicFactor" : 0,
                "roughnessFactor" : 0.5
            }
        },
        {
            "doubleSided" : true,
            "name" : "Material.001",
            "pbrMetallicRoughness" : {
                "baseColorFactor" : [
                    0.032440319657325745,
                    0.032440319657325745,
                    0.032440319657325745,
                    1
                ],
                "metallicFactor" : 0,
                "roughnessFactor" : 0.5
            }
        },
        {
            "doubleSided" : true,
            "name" : "Material.002",
            "pbrMetallicRoughness" : {
                "baseColorFactor" : [
                    0.8000000715255737,
                    0,
                    0.005764317698776722,
                    1
                ],
                "metallicFactor" : 0,
                "roughnessFactor" : 0.5
            }
        },
        {
            "doubleSided" : true,
            "name" : "Material.003",
            "pbrMetallicRoughness" : {
                "baseColorFactor" : [
                    0.800000011920929,
                    0.800000011920929,
                    0.800000011920929,
                    1
                ],
                "metallicFactor" : 0,
                "roughnessFactor" : 0.5
            }
        },
        {
            "doubleSided" : true,
            "name" : "Material.004",
            "pbrMetallicRoughness" : {
                "baseColorFactor" : [
                    0.8000000715255737,
                    0.5939903259277344,
                    0,
                    1
                ],
                "metallicFactor" : 0,
                "roughnessFactor" : 0.5
            }
        }
    ],
    "meshes" : [
        {
            "name" : "frontwheel",
            "primitives" : [
                {
                    "attributes" : {
                        "POSITION" : 0,
                        "NORMAL" : 1,
                        "TEXCOORD_0" : 2
                    },
                    "indices" : 3,
                    "material" : 0
                },
                {
                    "attributes" : {
                        "POSITION" : 4,
                        "NORMAL" : 5,
                        "TEXCOORD_0" : 6
                    },
                    "indices" : 7,
                    "material" : 1
                }
            ]
        },
        {
            "name" : "frontchasis",
            "primitives" : [
                {
                    "attributes" : {
                        "POSITION" : 8,
                        "NORMAL" : 9,
                        "TEXCOORD_0" : 10
                    },
                    "indices" : 11,
                    "material" : 0
                },
                {
                    "attributes" : {
                        "POSITION" : 12,
                        "NORMAL" : 13,
                        "TEXCOORD_0" : 14
                    },
                    "indices" : 15,
                    "material" : 1
                },
                {
                    "attributes" : {
                        "POSITION" : 16,
                        "NORMAL" : 17,
                        "TEXCOORD_0" : 18
                    },
                    "indices" : 19,
                    "material" : 2
                },
                {
                    "attributes" : {
                        "POSITION" : 20,
                        "NORMAL" : 21,
                        "TEXCOORD_0" : 22
                    },
                    "indices" : 23,
                    "material" : 3
                }
            ]
        },
        {
            "name" : "backwheel",
            "primitives" : [
                {
                    "attributes" : {
                        "POSITION" : 24,
                        "NORMAL" : 25,
                        "TEXCOORD_0" : 26
                    },
                    "indices" : 27,
                    "material" : 0
                },
                {
                    "attributes" : {
                        "POSITION" : 28,
                        "NORMAL" : 29,
                        "TEXCOORD_0" : 30
                    },
                    "indices" : 31,
                    "material" : 1
                }
            ]
        },
        {
            "name" : "Chasis",
            "primitives" : [
                {
                    "attributes" : {
                        "POSITION" : 32,
                        "NORMAL" : 33,
                        "TEXCOORD_0" : 34
                    },
                    "indices" : 35,
                    "material" : 0
                },
                {
                    "attributes" : {
                        "POSITION" : 36,
                        "NORMAL" : 37,
                        "TEXCOORD_0" : 38
                    },
                    "indices" : 39,
                    "material" : 2
                },
                {
                    "attributes" : {
                        "POSITION" : 40,
                        "NORMAL" : 41,
                        "TEXCOORD_0" : 42
                    },
                    "indices" : 43,
                    "material" : 3
                },
                {
                    "attributes" : {
                        "POSITION" : 44,
                        "NORMAL" : 45,
                        "TEXCOORD_0" : 46
                    },
                    "indices" : 47,
                    "material" : 4
                }
            ]
        }
    ],
    "accessors" : [
        {
            "bufferView" : 0,
            "componentType" : 5126,
            "count" : 143,
            "max" : [
                1.537560224533081,
                0.1592867374420166,
                1.5320756435394287
            ],
            "min" : [
                -1.5313498973846436,
                -0.15934374928474426,
                -1.5368365049362183
            ],
            "type" : "VEC3"
        },
        {
            "bufferView" : 1,
            "componentType" : 5126,
            "count" : 143,
            "type" : "VEC3"
        },
        {
            "bufferView" : 2,
            "componentType" : 5126,
            "count" : 143,
            "type" : "VEC2"
        },
        {
            "bufferView" : 3,
            "componentType" : 5123,
            "count" : 648,
            "type" : "SCALAR"
        },
        {
            "bufferView" : 4,
            "componentType" : 5126,
            "count" : 88,
            "max" : [
                1.2558019161224365,
                0.07000020891427994,
                1.2827072143554688
            ],
            "min" : [
                -1.2558023929595947,
                -0.07000020146369934,
                -1.2827072143554688
            ],
            "type" : "VEC3"
        },
        {
            "bufferView" : 5,
            "componentType" : 5126,
            "count" : 88,
            "type" : "VEC3"
        },
        {
            "bufferView" : 6,
            "componentType" : 5126,
            "count" : 88,
            "type" : "VEC2"
        },
        {
            "bufferView" : 7,
            "componentType" : 5123,
            "count" : 228,
            "type" : "SCALAR"
        },
        {
            "bufferView" : 8,
            "componentType" : 5126,
            "count" : 628,
            "max" : [
                1.8677170276641846,
                1.2021198272705078,
                3.809995412826538
            ],
            "min" : [
                -0.5689384937286377,
                -1.10211980342865,
                -0.04654800891876221
            ],
            "type" : "VEC3"
        },
        {
            "bufferView" : 9,
            "componentType" : 5126,
            "count" : 628,
            "type" : "VEC3"
        },
        {
            "bufferView" : 10,
            "componentType" : 5126,
            "count" : 628,
            "type" : "VEC2"
        },
        {
            "bufferView" : 11,
            "componentType" : 5123,
            "count" : 2388,
            "type" : "SCALAR"
        },
        {
            "bufferView" : 12,
            "componentType" : 5126,
            "count" : 100,
            "max" : [
                1.3847332000732422,
                0.30862417817115784,
                3.6319119930267334
            ],
            "min" : [
                1.2838025093078613,
                -0.3086225390434265,
                3.535787582397461
            ],
            "type" : "VEC3"
        },
        {
            "bufferView" : 13,
            "componentType" : 5126,
            "count" : 100,
            "type" : "VEC3"
        },
        {
            "bufferView" : 14,
            "componentType" : 5126,
            "count" : 100,
            "type" : "VEC2"
        },
        {
            "bufferView" : 15,
            "componentType" : 5123,
            "count" : 132,
            "type" : "SCALAR"
        },
        {
            "bufferView" : 16,
            "componentType" : 5126,
            "count" : 30,
            "max" : [
                0.4300861358642578,
                0.4429006576538086,
                1.83211088180542
            ],
            "min" : [
                -0.41860437393188477,
                -0.4429001808166504,
                0.6342397928237915
            ],
            "type" : "VEC3"
        },
        {
            "bufferView" : 17,
            "componentType" : 5126,
            "count" : 30,
            "type" : "VEC3"
        },
        {
            "bufferView" : 18,
            "componentType" : 5126,
            "count" : 30,
            "type" : "VEC2"
        },
        {
            "bufferView" : 19,
            "componentType" : 5123,
            "count" : 84,
            "type" : "SCALAR"
        },
        {
            "bufferView" : 20,
            "componentType" : 5126,
            "count" : 34,
            "max" : [
                0.2983226776123047,
                0.2850194275379181,
                0.6022224426269531
            ],
            "min" : [
                0.2190089225769043,
                -0.2850192189216614,
                0.07814896106719971
            ],
            "type" : "VEC3"
        },
        {
            "bufferView" : 21,
            "componentType" : 5126,
            "count" : 34,
            "type" : "VEC3"
        },
        {
            "bufferView" : 22,
            "componentType" : 5126,
            "count" : 34,
            "type" : "VEC2"
        },
        {
            "bufferView" : 23,
            "componentType" : 5123,
            "count" : 156,
            "type" : "SCALAR"
        },
        {
            "bufferView" : 24,
            "componentType" : 5126,
            "count" : 143,
            "max" : [
                1.533116340637207,
                0.1972096711397171,
                1.5320758819580078
            ],
            "min" : [
                -1.5357942581176758,
                -0.19726669788360596,
                -1.5368366241455078
            ],
            "type" : "VEC3"
        },
        {
            "bufferView" : 25,
            "componentType" : 5126,
            "count" : 143,
            "type" : "VEC3"
        },
        {
            "bufferView" : 26,
            "componentType" : 5126,
            "count" : 143,
            "type" : "VEC2"
        },
        {
            "bufferView" : 27,
            "componentType" : 5123,
            "count" : 648,
            "type" : "SCALAR"
        },
        {
            "bufferView" : 28,
            "componentType" : 5126,
            "count" : 84,
            "max" : [
                1.2558019161224365,
                0.07000020891427994,
                1.2827072143554688
            ],
            "min" : [
                -1.2558023929595947,
                -0.07000020891427994,
                -1.2827072143554688
            ],
            "type" : "VEC3"
        },
        {
            "bufferView" : 29,
            "componentType" : 5126,
            "count" : 84,
            "type" : "VEC3"
        },
        {
            "bufferView" : 30,
            "componentType" : 5126,
            "count" : 84,
            "type" : "VEC2"
        },
        {
            "bufferView" : 31,
            "componentType" : 5123,
            "count" : 228,
            "type" : "SCALAR"
        },
        {
            "bufferView" : 32,
            "componentType" : 5126,
            "count" : 866,
            "max" : [
                1.0601553916931152,
                0.9801411032676697,
                -1.1622347831726074
            ],
            "min" : [
                -5.0557146072387695,
                -1.1829869747161865,
                -4.040301322937012
            ],
            "type" : "VEC3"
        },
        {
            "bufferView" : 33,
            "componentType" : 5126,
            "count" : 866,
            "type" : "VEC3"
        },
        {
            "bufferView" : 34,
            "componentType" : 5126,
            "count" : 866,
            "type" : "VEC2"
        },
        {
            "bufferView" : 35,
            "componentType" : 5123,
            "count" : 3186,
            "type" : "SCALAR"
        },
        {
            "bufferView" : 36,
            "componentType" : 5126,
            "count" : 221,
            "max" : [
                1.6439175605773926,
                0.2636854648590088,
                -1.451366662979126
            ],
            "min" : [
                -3.6889853477478027,
                -0.2636868953704834,
                -4.000421524047852
            ],
            "type" : "VEC3"
        },
        {
            "bufferView" : 37,
            "componentType" : 5126,
            "count" : 221,
            "type" : "VEC3"
        },
        {
            "bufferView" : 38,
            "componentType" : 5126,
            "count" : 221,
            "type" : "VEC2"
        },
        {
            "bufferView" : 39,
            "componentType" : 5123,
            "count" : 720,
            "type" : "SCALAR"
        },
        {
            "bufferView" : 40,
            "componentType" : 5126,
            "count" : 30,
            "max" : [
                1.107987403869629,
                0.44741109013557434,
                -2.04075288772583
            ],
            "min" : [
                -4.61671257019043,
                -0.44741198420524597,
                -3.609680652618408
            ],
            "type" : "VEC3"
        },
        {
            "bufferView" : 41,
            "componentType" : 5126,
            "count" : 30,
            "type" : "VEC3"
        },
        {
            "bufferView" : 42,
            "componentType" : 5126,
            "count" : 30,
            "type" : "VEC2"
        },
        {
            "bufferView" : 43,
            "componentType" : 5123,
            "count" : 114,
            "type" : "SCALAR"
        },
        {
            "bufferView" : 44,
            "componentType" : 5126,
            "count" : 31,
            "max" : [
                -4.132298946380615,
                0.21180221438407898,
                -2.577890634536743
            ],
            "min" : [
                -4.452788829803467,
                -0.21180325746536255,
                -2.948016881942749
            ],
            "type" : "VEC3"
        },
        {
            "bufferView" : 45,
            "componentType" : 5126,
            "count" : 31,
            "type" : "VEC3"
        },
        {
            "bufferView" : 46,
            "componentType" : 5126,
            "count" : 31,
            "type" : "VEC2"
        },
        {
            "bufferView" : 47,
            "componentType" : 5123,
            "count" : 72,
            "type" : "SCALAR"
        }
    ],
    "bufferViews" : [
        {
            "buffer" : 0,
            "byteLength" : 1716,
            "byteOffset" : 0
        },
        {
            "buffer" : 0,
            "byteLength" : 1716,
            "byteOffset" : 1716
        },
        {
            "buffer" : 0,
            "byteLength" : 1144,
            "byteOffset" : 3432
        },
        {
            "buffer" : 0,
            "byteLength" : 1296,
            "byteOffset" : 4576
        },
        {
            "buffer" : 0,
            "byteLength" : 1056,
            "byteOffset" : 5872
        },
        {
            "buffer" : 0,
            "byteLength" : 1056,
            "byteOffset" : 6928
        },
        {
            "buffer" : 0,
            "byteLength" : 704,
            "byteOffset" : 7984
        },
        {
            "buffer" : 0,
            "byteLength" : 456,
            "byteOffset" : 8688
        },
        {
            "buffer" : 0,
            "byteLength" : 7536,
            "byteOffset" : 9144
        },
        {
            "buffer" : 0,
            "byteLength" : 7536,
            "byteOffset" : 16680
        },
        {
            "buffer" : 0,
            "byteLength" : 5024,
            "byteOffset" : 24216
        },
        {
            "buffer" : 0,
            "byteLength" : 4776,
            "byteOffset" : 29240
        },
        {
            "buffer" : 0,
            "byteLength" : 1200,
            "byteOffset" : 34016
        },
        {
            "buffer" : 0,
            "byteLength" : 1200,
            "byteOffset" : 35216
        },
        {
            "buffer" : 0,
            "byteLength" : 800,
            "byteOffset" : 36416
        },
        {
            "buffer" : 0,
            "byteLength" : 264,
            "byteOffset" : 37216
        },
        {
            "buffer" : 0,
            "byteLength" : 360,
            "byteOffset" : 37480
        },
        {
            "buffer" : 0,
            "byteLength" : 360,
            "byteOffset" : 37840
        },
        {
            "buffer" : 0,
            "byteLength" : 240,
            "byteOffset" : 38200
        },
        {
            "buffer" : 0,
            "byteLength" : 168,
            "byteOffset" : 38440
        },
        {
            "buffer" : 0,
            "byteLength" : 408,
            "byteOffset" : 38608
        },
        {
            "buffer" : 0,
            "byteLength" : 408,
            "byteOffset" : 39016
        },
        {
            "buffer" : 0,
            "byteLength" : 272,
            "byteOffset" : 39424
        },
        {
            "buffer" : 0,
            "byteLength" : 312,
            "byteOffset" : 39696
        },
        {
            "buffer" : 0,
            "byteLength" : 1716,
            "byteOffset" : 40008
        },
        {
            "buffer" : 0,
            "byteLength" : 1716,
            "byteOffset" : 41724
        },
        {
            "buffer" : 0,
            "byteLength" : 1144,
            "byteOffset" : 43440
        },
        {
            "buffer" : 0,
            "byteLength" : 1296,
            "byteOffset" : 44584
        },
        {
            "buffer" : 0,
            "byteLength" : 1008,
            "byteOffset" : 45880
        },
        {
            "buffer" : 0,
            "byteLength" : 1008,
            "byteOffset" : 46888
        },
        {
            "buffer" : 0,
            "byteLength" : 672,
            "byteOffset" : 47896
        },
        {
            "buffer" : 0,
            "byteLength" : 456,
            "byteOffset" : 48568
        },
        {
            "buffer" : 0,
            "byteLength" : 10392,
            "byteOffset" : 49024
        },
        {
            "buffer" : 0,
            "byteLength" : 10392,
            "byteOffset" : 59416
        },
        {
            "buffer" : 0,
            "byteLength" : 6928,
            "byteOffset" : 69808
        },
        {
            "buffer" : 0,
            "byteLength" : 6372,
            "byteOffset" : 76736
        },
        {
            "buffer" : 0,
            "byteLength" : 2652,
            "byteOffset" : 83108
        },
        {
            "buffer" : 0,
            "byteLength" : 2652,
            "byteOffset" : 85760
        },
        {
            "buffer" : 0,
            "byteLength" : 1768,
            "byteOffset" : 88412
        },
        {
            "buffer" : 0,
            "byteLength" : 1440,
            "byteOffset" : 90180
        },
        {
            "buffer" : 0,
            "byteLength" : 360,
            "byteOffset" : 91620
        },
        {
            "buffer" : 0,
            "byteLength" : 360,
            "byteOffset" : 91980
        },
        {
            "buffer" : 0,
            "byteLength" : 240,
            "byteOffset" : 92340
        },
        {
            "buffer" : 0,
            "byteLength" : 228,
            "byteOffset" : 92580
        },
        {
            "buffer" : 0,
            "byteLength" : 372,
            "byteOffset" : 92808
        },
        {
            "buffer" : 0,
            "byteLength" : 372,
            "byteOffset" : 93180
        },
        {
            "buffer" : 0,
            "byteLength" : 248,
            "byteOffset" : 93552
        },
        {
            "buffer" : 0,
            "byteLength" : 144,
            "byteOffset" : 93800
        }
    ],
    "buffers" : [
        {
            "byteLength" : 93944,
            "uri" : "data:application/octet-stream;base64,"
        }
    ]
}
